<?xml version="1.0" encoding="UTF-8"?>
<svg id="Capa_2" data-name="Capa 2" xmlns="http://www.w3.org/2000/svg" xmlns:xlink="http://www.w3.org/1999/xlink" viewBox="0 0 1301.83 424.1">
  <defs>
    <style>
      .cls-1 {
        fill: url(#Degradado_sin_nombre-11);
      }

      .cls-2 {
        fill: url(#Degradado_sin_nombre-10);
      }

      .cls-3 {
        fill: url(#Degradado_sin_nombre-14);
      }

      .cls-4 {
        fill: url(#Degradado_sin_nombre-2);
      }

      .cls-5 {
        fill: #fff;
      }

      .cls-6 {
        fill: url(#Degradado_sin_nombre-17);
      }

      .cls-7 {
        fill: url(#Degradado_sin_nombre-8);
      }

      .cls-8 {
        fill: url(#Degradado_sin_nombre-13);
      }

      .cls-9 {
        fill: url(#Degradado_sin_nombre-23);
      }

      .cls-10 {
        fill: url(#Degradado_sin_nombre-15);
      }

      .cls-11 {
        fill: url(#Degradado_sin_nombre-4);
      }

      .cls-12 {
        isolation: isolate;
      }

      .cls-13 {
        fill: url(#Degradado_sin_nombre-7);
      }

      .cls-14 {
        fill: url(#Degradado_sin_nombre-9);
      }

      .cls-15 {
        fill: url(#Degradado_sin_nombre-12);
      }

      .cls-16 {
        fill: url(#Degradado_sin_nombre-3);
      }

      .cls-17 {
        fill: url(#Degradado_sin_nombre-6);
      }

      .cls-18 {
        fill: url(#Degradado_sin_nombre-21);
      }

      .cls-19 {
        fill: url(#Degradado_sin_nombre-19);
      }

      .cls-20 {
        fill: url(#Degradado_sin_nombre);
      }

      .cls-21 {
        fill: url(#Degradado_sin_nombre-16);
      }

      .cls-22 {
        fill: url(#Degradado_sin_nombre-22);
      }

      .cls-23 {
        fill: url(#Degradado_sin_nombre-5);
      }

      .cls-24 {
        fill: url(#Degradado_sin_nombre-18);
      }

      .cls-25 {
        fill: url(#Degradado_sin_nombre-20);
      }
    </style>
    <linearGradient id="Degradado_sin_nombre" data-name="Degradado sin nombre" x1="-1237.14" y1="1223.72" x2="-1237.14" y2="763.92" gradientTransform="translate(-1007.57 -774.28) rotate(-180) scale(1 -1)" gradientUnits="userSpaceOnUse">
      <stop offset="0" stop-color="#26f1ff"/>
      <stop offset="1" stop-color="#ff61fa"/>
    </linearGradient>
    <linearGradient id="Degradado_sin_nombre-2" data-name="Degradado sin nombre" x1="-1162.31" y1="1223.72" x2="-1162.31" y2="763.92" xlink:href="#Degradado_sin_nombre"/>
    <linearGradient id="Degradado_sin_nombre-3" data-name="Degradado sin nombre" x1="-1040.12" y1="1223.72" x2="-1040.12" y2="763.92" xlink:href="#Degradado_sin_nombre"/>
    <linearGradient id="Degradado_sin_nombre-4" data-name="Degradado sin nombre" x1="-1051.89" y1="1223.72" x2="-1051.89" y2="763.92" xlink:href="#Degradado_sin_nombre"/>
    <linearGradient id="Degradado_sin_nombre-5" data-name="Degradado sin nombre" x1="-1054.53" y1="1223.72" x2="-1054.53" y2="763.92" xlink:href="#Degradado_sin_nombre"/>
    <linearGradient id="Degradado_sin_nombre-6" data-name="Degradado sin nombre" x1="-1115.82" y1="1223.72" x2="-1115.82" y2="763.92" xlink:href="#Degradado_sin_nombre"/>
    <linearGradient id="Degradado_sin_nombre-7" data-name="Degradado sin nombre" x1="-1130.94" y1="1223.72" x2="-1130.94" y2="763.92" xlink:href="#Degradado_sin_nombre"/>
    <linearGradient id="Degradado_sin_nombre-8" data-name="Degradado sin nombre" x1="-1275.45" x2="-1275.45" y2="763.92" xlink:href="#Degradado_sin_nombre"/>
    <linearGradient id="Degradado_sin_nombre-9" data-name="Degradado sin nombre" x1="-1363.04" y1="1223.72" x2="-1363.04" y2="763.92" xlink:href="#Degradado_sin_nombre"/>
    <linearGradient id="Degradado_sin_nombre-10" data-name="Degradado sin nombre" x1="-1400.1" y1="1223.72" x2="-1400.1" y2="763.92" xlink:href="#Degradado_sin_nombre"/>
    <linearGradient id="Degradado_sin_nombre-11" data-name="Degradado sin nombre" x1="-1285.77" y1="1223.72" x2="-1285.77" y2="763.92" xlink:href="#Degradado_sin_nombre"/>
    <linearGradient id="Degradado_sin_nombre-12" data-name="Degradado sin nombre" x1="-1227.13" y1="1223.72" x2="-1227.13" y2="763.92" xlink:href="#Degradado_sin_nombre"/>
    <linearGradient id="Degradado_sin_nombre-13" data-name="Degradado sin nombre" x1="-1182.61" y1="1223.72" x2="-1182.61" y2="763.92" xlink:href="#Degradado_sin_nombre"/>
    <linearGradient id="Degradado_sin_nombre-14" data-name="Degradado sin nombre" x1="-1371.08" y1="1223.72" x2="-1371.08" y2="763.92" xlink:href="#Degradado_sin_nombre"/>
    <linearGradient id="Degradado_sin_nombre-15" data-name="Degradado sin nombre" x1="-1299.68" y1="1223.72" x2="-1299.68" y2="763.92" xlink:href="#Degradado_sin_nombre"/>
    <linearGradient id="Degradado_sin_nombre-16" data-name="Degradado sin nombre" x1="-1364.58" y1="1223.72" x2="-1364.58" y2="763.92" xlink:href="#Degradado_sin_nombre"/>
    <linearGradient id="Degradado_sin_nombre-17" data-name="Degradado sin nombre" x1="-1212.43" x2="-1212.43" y2="763.92" xlink:href="#Degradado_sin_nombre"/>
    <linearGradient id="Degradado_sin_nombre-18" data-name="Degradado sin nombre" x1="-1083.96" y1="1223.72" x2="-1083.96" y2="763.92" xlink:href="#Degradado_sin_nombre"/>
    <linearGradient id="Degradado_sin_nombre-19" data-name="Degradado sin nombre" x1="-1214.03" y1="1223.72" x2="-1214.03" y2="763.92" xlink:href="#Degradado_sin_nombre"/>
    <linearGradient id="Degradado_sin_nombre-20" data-name="Degradado sin nombre" x1="-1272.14" y1="1223.72" x2="-1272.14" y2="763.92" xlink:href="#Degradado_sin_nombre"/>
    <linearGradient id="Degradado_sin_nombre-21" data-name="Degradado sin nombre" x1="-1361.56" y1="1223.72" x2="-1361.56" y2="763.92" xlink:href="#Degradado_sin_nombre"/>
    <linearGradient id="Degradado_sin_nombre-22" data-name="Degradado sin nombre" x1="-1200.19" y1="1223.72" x2="-1200.19" y2="763.92" xlink:href="#Degradado_sin_nombre"/>
    <linearGradient id="Degradado_sin_nombre-23" data-name="Degradado sin nombre" x1="-1114.86" y1="1223.72" x2="-1114.86" y2="763.92" xlink:href="#Degradado_sin_nombre"/>
  </defs>
  <g id="Capa_1-2" data-name="Capa 1">
    <g>
      <g>
        <g class="cls-12">
          <path class="cls-5" d="M490.03,238.5c.8,14.8,11.4,21.8,23.4,21.8,13.2,0,20.4-6.8,20.4-15.2,0-11.4-10.8-16.8-27-25.6-28.6-16.4-38.4-26.6-38.4-45.6,0-21.6,18.6-36.4,42-36.4,25.8,0,42.8,19.2,43.4,43.4h-24.6c-.6-12.6-8-20.2-18.8-20.2-9.4,0-17.4,5.6-17.4,14.2,0,10.8,8.2,15,22.6,22.6,27,14.6,42.8,26.8,42.8,48.4,0,24-20.2,37.6-45,37.6-29.8,0-47.4-21.6-48-45h24.6Z"/>
        </g>
        <g class="cls-12">
          <path class="cls-5" d="M576.83,180.3h23.2l1.4,18.8c5.4-11.6,18.8-20.8,36.2-20.8,29,0,50.4,23.6,50.4,52.6s-21.4,52.6-50.4,52.6c-17.4,0-30.8-9.2-36.2-20.8v64.8h-24.6v-147.2ZM633.63,260.3c17.2,0,29.6-13.4,29.6-29.4s-12.4-29.4-29.6-29.4-29.4,13.4-29.4,29.4,12,29.4,29.4,29.4Z"/>
        </g>
        <g class="cls-12">
          <path class="cls-5" d="M802.43,221.7v59.8h-24.6v-48.4c0-23.6-8.6-31.6-22.2-31.6-17.2,0-27.4,13-28,29.4v50.6h-24.6v-150h24.6v63.6c9.8-9.6,22.4-16.8,37.6-16.8,24.4,0,37.2,15.8,37.2,43.4Z"/>
        </g>
        <g class="cls-12">
          <path class="cls-5" d="M918.63,238.5h-76.6c.6,12.4,10,23.2,27.8,23.2,12.8,0,21-6.8,25-13.8l21.6,2.4c-3,13.8-18.8,33.2-46.8,33.2-31.2,0-52.2-23.6-52.2-53.2s20-52,50.6-52,50.6,24.8,50.6,53.8v6.4ZM842.03,221.5h52c-.8-11.2-10.6-21.4-26-21.4s-25.4,9.8-26,21.4Z"/>
        </g>
        <g class="cls-12">
          <path class="cls-5" d="M993.63,182.7l-3.6,21.4c-2-1.2-6-2.6-10-2.6-13.2,0-20.4,13.6-20.4,35v45h-24.6v-101.2h23.2l1,11c6.4-7.8,13.8-13,22.2-13,5.8,0,10,2.2,12.2,4.4Z"/>
        </g>
        <g class="cls-12">
          <path class="cls-5" d="M1006.63,153.5c0-7,5.6-12.6,12.6-12.6s12.6,5.6,12.6,12.6-5.6,12.6-12.6,12.6-12.6-5.6-12.6-12.6ZM1031.63,281.5h-24.6v-101.2h24.6v101.2Z"/>
        </g>
        <g class="cls-12">
          <path class="cls-5" d="M1105.63,201.5c-15,0-30,11.8-30,29.4s15,29.4,30,29.4c9.4,0,17.8-3.2,25.8-10.8v23.6c-6.8,6-16.8,10.4-29.8,10.4-30,0-52-24-52-52.6s22-52.6,52-52.6c13,0,23,4.4,29.8,10.4v23.4c-8-7.6-16.4-10.6-25.8-10.6Z"/>
        </g>
        <g class="cls-12">
          <path class="cls-5" d="M1195.23,178.3c17.4,0,31,9.2,36.2,20.8l1.4-18.8h23.4v101.2h-23.4l-1.4-18.8c-5.2,11.6-18.8,20.8-36.2,20.8-29,0-50.2-23.6-50.2-52.6s21.2-52.6,50.2-52.6ZM1199.43,260.3c17.2,0,29.4-13.4,29.4-29.4s-12.2-29.4-29.4-29.4-29.8,13.4-29.8,29.4,12.4,29.4,29.8,29.4Z"/>
        </g>
        <g class="cls-12">
          <path class="cls-5" d="M1301.83,281.5h-24.6v-150h24.6v150Z"/>
        </g>
      </g>
      <g>
        <path class="cls-20" d="M272.7,85.43l41.08-41.07c5.05,1,9.95-2.28,10.95-7.33,1-5.05-2.28-9.95-7.33-10.95-5.05-1-9.95,2.28-10.95,7.33-.24,1.2-.24,2.43,0,3.62l-41.08,41.08c-3.72,3.67-8.73,5.73-13.95,5.73h-28.14c-8,.02-15.68,3.19-21.35,8.84l-57.25,57.25c-4.87-.83-9.48,2.45-10.31,7.31s2.45,9.48,7.31,10.31c4.87.83,9.48-2.45,10.31-7.31.17-.99.17-1.99,0-2.98l57.25-57.25c3.72-3.71,8.76-5.8,14.01-5.82h28.14c7.98,0,15.64-3.15,21.31-8.77Z"/>
        <path class="cls-4" d="M158.4,207.94h28.14c7.94,0,15.56-3.14,21.2-8.73l63.8-63.79c5.05,1.01,9.96-2.26,10.97-7.31,1.01-5.05-2.26-9.96-7.31-10.97-5.05-1.01-9.96,2.26-10.97,7.31-.24,1.2-.24,2.44,0,3.65l-63.8,63.8c-3.7,3.65-8.69,5.68-13.89,5.68h-28.14c-8,.02-15.68,3.19-21.35,8.84l-99.71,99.74c-4.91-.85-9.57,2.44-10.42,7.34-.85,4.91,2.44,9.57,7.34,10.42,4.91.85,9.57-2.44,10.42-7.34.18-1.03.18-2.09,0-3.12l99.7-99.71c3.73-3.7,8.77-5.79,14.02-5.8Z"/>
        <path class="cls-16" d="M26.23,136.38l18.44-18.44c5.64-5.67,8.82-13.35,8.84-21.35v-10.55c.42-.29.82-.61,1.18-.97,3.52-3.52,3.52-9.22,0-12.73-3.52-3.52-9.22-3.52-12.73,0-3.52,3.52-3.52,9.22,0,12.73,0,0,0,0,0,0,.37.35.77.68,1.19.97v10.58c-.02,5.26-2.11,10.3-5.82,14.02l-18.44,18.44c-5.05-1-9.96,2.29-10.95,7.35-1,5.05,2.29,9.96,7.35,10.95,5.05,1,9.96-2.29,10.95-7.35.24-1.21.23-2.45,0-3.66Z"/>
        <path class="cls-11" d="M18.47,193.03l59.77-59.76c4.86.81,9.45-2.47,10.26-7.33.81-4.86-2.47-9.45-7.33-10.26-4.86-.81-9.45,2.47-10.26,7.33-.16.98-.16,1.97,0,2.95l-59.77,59.76c-5.05-1-9.96,2.28-10.96,7.33-1,5.05,2.28,9.96,7.33,10.96,5.05,1,9.96-2.28,10.96-7.33.24-1.2.24-2.44,0-3.65Z"/>
        <path class="cls-23" d="M20.68,239.71l60.05-60.05c4.86.82,9.46-2.46,10.27-7.31.82-4.86-2.46-9.46-7.31-10.27-4.86-.82-9.46,2.46-10.27,7.31-.16.98-.16,1.97,0,2.95l-60.05,60.05c-4.9-.86-9.58,2.41-10.44,7.31-.86,4.9,2.41,9.58,7.31,10.44,4.9.86,9.58-2.41,10.44-7.31.18-1.03.18-2.08,0-3.12Z"/>
        <path class="cls-17" d="M30.76,278.53l76.36-76.37c5.63-5.68,8.8-13.35,8.81-21.35v-76.95c.05-5.32,2.19-10.41,5.96-14.16L193.03,18.47c5.05,1.01,9.96-2.27,10.97-7.32,1.01-5.05-2.27-9.96-7.32-10.97-5.05-1.01-9.96,2.27-10.97,7.32-.24,1.21-.24,2.45,0,3.66l-71.18,71.18c-5.71,5.72-8.94,13.45-8.98,21.53v77.02c-.03,5.25-2.12,10.28-5.82,13.99l-76.36,76.37c-5.05-.97-9.93,2.34-10.9,7.4-.97,5.05,2.34,9.93,7.4,10.9,5.05.97,9.93-2.34,10.9-7.4.23-1.19.22-2.42-.02-3.61Z"/>
        <path class="cls-13" d="M90.87,364.99l33.96-33.96c5.64-5.67,8.82-13.35,8.84-21.35v-28.14c0-5.22,2.04-10.22,5.71-13.93l23.8-23.79c5.05,1.01,9.96-2.26,10.97-7.31,1.01-5.05-2.26-9.96-7.31-10.97-5.05-1.01-9.96,2.26-10.97,7.31-.24,1.2-.24,2.44,0,3.65l-23.79,23.79c-5.6,5.66-8.73,13.29-8.73,21.25v28.14c-.02,5.26-2.11,10.29-5.82,14.01l-33.96,33.96c-5.05-1.01-9.96,2.26-10.97,7.31-1.01,5.05,2.26,9.96,7.31,10.97,5.05,1.01,9.96-2.26,10.97-7.31.24-1.2.24-2.44,0-3.65v.02Z"/>
        <path class="cls-7" d="M238.4,412.94l66.26-66.26c5.05,1.01,9.96-2.26,10.97-7.31,1.01-5.05-2.26-9.96-7.31-10.97-5.05-1.01-9.96,2.26-10.97,7.31-.24,1.2-.24,2.44,0,3.65l-66.27,66.28c-5.05-1-9.95,2.28-10.95,7.33-1,5.05,2.28,9.95,7.33,10.95,5.05,1,9.95-2.28,10.95-7.33.24-1.2.24-2.43,0-3.62v-.03Z"/>
        <path class="cls-14" d="M305.3,394.9l34.07-34.06c5.64-5.68,8.81-13.35,8.84-21.35v-28.14c.03-5.3,2.14-10.37,5.89-14.11l58.84-58.84c5.04,1.02,9.96-2.25,10.97-7.29,1.02-5.04-2.25-9.96-7.29-10.97-5.04-1.02-9.96,2.25-10.97,7.29-.24,1.2-.25,2.44,0,3.65l-58.84,58.85c-5.68,5.68-8.89,13.39-8.92,21.43v28.14c-.02,5.25-2.11,10.29-5.82,14.01l-34.06,34.06c-5.05-1.01-9.96,2.27-10.97,7.32-1.01,5.05,2.27,9.96,7.32,10.97,5.05,1.01,9.96-2.27,10.97-7.32.24-1.21.24-2.45,0-3.66l-.02.02Z"/>
        <path class="cls-2" d="M386.15,336.36c-.67-.66-1.45-1.21-2.29-1.63v-10.17c.02-5.26,2.11-10.3,5.82-14.03l14.02-14.01c5.05,1,9.95-2.28,10.95-7.33s-2.28-9.95-7.33-10.95-9.95,2.28-10.95,7.33c-.24,1.2-.24,2.43,0,3.63l-14.02,14.01c-5.65,5.67-8.83,13.34-8.85,21.35v11.35c-.17.16-.37.28-.54.45-3.64,3.64-3.64,9.55,0,13.19,3.64,3.64,9.55,3.64,13.19,0s3.64-9.55,0-13.19h0Z"/>
        <path class="cls-1" d="M418.88,176.27c-3.63-3.64-9.53-3.65-13.17-.01-2.21,2.2-3.17,5.36-2.56,8.42l-140.58,140.58c-3.72,3.71-8.76,5.8-14.02,5.82h-28.14c-8,.01-15.68,3.19-21.35,8.84l-53.74,53.74c-4.9-.86-9.57,2.42-10.42,7.31-.86,4.9,2.42,9.57,7.31,10.42,4.9.86,9.57-2.42,10.42-7.31.18-1.02.18-2.07,0-3.1l53.75-53.75c3.72-3.71,8.76-5.8,14.01-5.82h28.14c8-.02,15.67-3.2,21.35-8.84l140.6-140.57c5.04,1.01,9.95-2.25,10.97-7.3.62-3.06-.34-6.23-2.56-8.43h-.03Z"/>
        <path class="cls-15" d="M282.65,179.06c3.62-3.66,3.58-9.56-.08-13.17-3.66-3.62-9.56-3.58-13.17.08-2.17,2.19-3.11,5.31-2.52,8.33l-101.98,102.02c-5.05-1-9.95,2.28-10.95,7.33s2.28,9.95,7.33,10.95c5.05,1,9.95-2.28,10.95-7.33.24-1.2.24-2.43,0-3.63l102.02-102.02c3.05.61,6.21-.35,8.4-2.55Z"/>
        <path class="cls-8" d="M247.56,263c3.65-3.64,3.66-9.54.02-13.19-3.64-3.65-9.54-3.66-13.19-.02-2.21,2.2-3.17,5.36-2.56,8.42l-120.92,120.96c-5.05-1-9.95,2.27-10.96,7.32-1,5.05,2.27,9.95,7.32,10.96s9.95-2.27,10.96-7.32c.24-1.2.24-2.44,0-3.64l120.92-120.92c3.06.6,6.22-.37,8.41-2.58Z"/>
        <path class="cls-3" d="M331.9,152.32c-3.63,3.64-3.63,9.54.01,13.17,3.64,3.63,9.54,3.63,13.17-.01,2.2-2.2,3.15-5.35,2.54-8.4l39.78-39.78c4.87.83,9.48-2.45,10.31-7.31.83-4.87-2.45-9.48-7.31-10.31-4.87-.83-9.48,2.45-10.31,7.31-.17.99-.17,1.99,0,2.98l-39.78,39.78c-3.06-.61-6.22.35-8.41,2.56Z"/>
        <path class="cls-10" d="M233.89,299.18c-3.65,3.64-3.66,9.54-.02,13.19,3.64,3.65,9.54,3.66,13.19.02,2.21-2.2,3.17-5.36,2.56-8.42l22.51-22.52c5.64-5.67,8.82-13.35,8.84-21.35v-28.14c.02-5.26,2.11-10.29,5.82-14.01l15.72-15.72c5.63-5.67,8.82-13.31,8.92-21.3l.59-77.05c.06-5.28,2.17-10.32,5.89-14.06l24.03-24.03c5.05,1,9.95-2.28,10.95-7.33,1-5.05-2.28-9.95-7.33-10.95-5.05-1-9.95,2.28-10.95,7.33-.24,1.2-.24,2.43,0,3.63l-24.06,24.05c-5.65,5.68-8.85,13.34-8.92,21.35l-.59,77.05c-.06,5.27-2.18,10.31-5.89,14.05l-15.65,15.64c-5.64,5.67-8.82,13.35-8.84,21.35v28.14c-.02,5.26-2.11,10.29-5.82,14.01l-22.49,22.49c-3.07-.61-6.25.36-8.45,2.58Z"/>
        <path class="cls-21" d="M304.94,228.16c-3.65,3.64-3.65,9.54-.01,13.19,3.64,3.65,9.54,3.65,13.19.01,2.21-2.21,3.17-5.37,2.56-8.44l80.02-80.01c5.05,1,9.95-2.28,10.95-7.33,1-5.05-2.28-9.95-7.33-10.95-5.05-1-9.95,2.28-10.95,7.33-.24,1.2-.24,2.43,0,3.62l-80.02,80.02c-3.05-.6-6.2.35-8.4,2.55Z"/>
        <path class="cls-6" d="M233.45,374.86c3.64-3.64,3.64-9.53,0-13.17s-9.53-3.64-13.17,0c-2.2,2.2-3.16,5.36-2.55,8.41l-33.06,33.05c-5.05-1-9.95,2.28-10.95,7.33-1,5.05,2.28,9.95,7.33,10.95,5.05,1,9.95-2.28,10.95-7.33.24-1.2.24-2.43,0-3.62l33.05-33.06c3.05.61,6.21-.35,8.4-2.55Z"/>
        <path class="cls-24" d="M102.04,310.82c3.65-3.64,3.65-9.54.02-13.19s-9.54-3.65-13.19-.02c-2.21,2.2-3.17,5.37-2.56,8.43l-27.17,27.17c-5.05-1-9.95,2.28-10.95,7.33-1,5.05,2.28,9.95,7.33,10.95,5.05,1,9.95-2.28,10.95-7.33.24-1.2.24-2.43,0-3.62l27.17-27.17c3.05.61,6.21-.35,8.4-2.55Z"/>
        <path class="cls-19" d="M178.93,159.26c-3.49,3.48-3.5,9.12-.03,12.61s9.12,3.5,12.61.03c2.05-2.04,2.98-4.94,2.5-7.79l32.24-32.24c4.85.81,9.44-2.47,10.25-7.33s-2.47-9.44-7.33-10.25c-4.85-.81-9.44,2.47-10.25,7.33-.16.97-.16,1.95,0,2.92l-32.23,32.24c-2.84-.48-5.73.44-7.77,2.47Z"/>
        <path class="cls-25" d="M239.89,48.87c-3.64,3.64-3.63,9.54,0,13.17,3.64,3.64,9.54,3.63,13.17,0,2.19-2.2,3.15-5.34,2.55-8.39l25.23-25.23c5.05,1,9.95-2.28,10.95-7.33s-2.28-9.95-7.33-10.95-9.95,2.28-10.95,7.33c-.24,1.2-.24,2.43,0,3.63l-25.23,25.23c-3.05-.61-6.2.34-8.4,2.54Z"/>
        <path class="cls-18" d="M360.31,80.91l-19.95,19.95c-4.9-.86-9.58,2.41-10.44,7.31-.86,4.9,2.41,9.58,7.31,10.44,4.9.86,9.58-2.41,10.44-7.31.18-1.03.18-2.08,0-3.12l19.95-19.95c4.9.86,9.58-2.41,10.44-7.31.86-4.9-2.41-9.58-7.31-10.44-4.9-.86-9.58,2.41-10.44,7.31-.18,1.03-.18,2.08,0,3.12Z"/>
        <path class="cls-22" d="M232.1,13.62l-60.01,60.04.12.12c-2.06,1.82-6.24,6.01-16.15,15.91l-10.84,10.83c-4.9-.85-9.56,2.43-10.42,7.33-.85,4.9,2.43,9.56,7.33,10.42,4.9.85,9.56-2.43,10.42-7.33.18-1.02.18-2.07,0-3.09l25.75-25.75,61.13-61.13c5.05,1,9.95-2.29,10.94-7.34,1-5.05-2.29-9.95-7.34-10.94-5.05-1-9.95,2.29-10.94,7.34-.23,1.19-.23,2.42,0,3.61Z"/>
        <path class="cls-9" d="M136,19.33c-3.63-3.64-9.53-3.65-13.17-.01-2.21,2.2-3.17,5.36-2.56,8.42l-33.96,33.96c-4.87-.83-9.49,2.44-10.32,7.31-.83,4.87,2.44,9.49,7.31,10.32s9.49-2.44,10.32-7.31c.17-.99.17-2.01,0-3l33.96-33.96c5.05,1.01,9.95-2.27,10.96-7.31.61-3.06-.35-6.22-2.56-8.42h0Z"/>
      </g>
    </g>
  </g>
</svg>